<svg height="60" viewBox="0 0 125 60" width="125" xmlns="http://www.w3.org/2000/svg" xmlns:xlink="http://www.w3.org/1999/xlink"><linearGradient id="a" x1="50%" x2="50%" y1="100%" y2="0%"><stop offset="0" stop-color="#333"/><stop offset=".38" stop-color="#5a5a5a"/><stop offset="1" stop-color="#999"/></linearGradient><linearGradient id="b" x1="50%" x2="50%" y1="100%" y2="0%"><stop offset=".35" stop-color="#e6e6e6"/><stop offset=".68" stop-color="#e4e4e4"/><stop offset=".8" stop-color="#ddd"/><stop offset=".89" stop-color="#d1d1d1"/><stop offset=".96" stop-color="#c0c0c0"/><stop offset="1" stop-color="#b3b3b3"/></linearGradient><g fill="none" fill-rule="nonzero"><g transform="translate(45 40)"><path d="m11.1538462 5.85219847v14.14780153h-11.1538462v-14.16972303h.04328358l5.52365098-5.83027697 5.52448334 5.83027697.0208094.0219215z" fill="url(#a)"/><path d="m11.1538462 5.76923077h24.2307692v14.23076923h-24.2307692z" fill="url(#b)"/><path d="m35.3846154 5.76923077-24.3377763-.00249247h-.0421798l-.02109-.02160138-5.59895392-5.74513692 24.42213602.00332329z" fill="#ccc"/><g fill="#666" transform="translate(21.5385 14.6154)"><path d="m.4269555.025h.001c-.001.017-.001.033-.001.05z"/><path d="m4.19748333.025v.05c0-.017 0-.033-.001-.05z"/><path d="m3.77036569 1.94851841v3.43609697h-3.77036569v-3.43609697c0-.01424723 0-.02765639.00083786-.04190362.02178433-1.02244837.8571298-1.84375936 1.88434498-1.84375936 1.02721519 0 1.86256065.82131099 1.88434499 1.84375936.00083786.01424723.00083786.02765639.00083786.04190362z"/></g><g fill="#808080"><rect height="2.108459" rx=".73846" width="1.476919" x="13.4615" y="8.0769"/><rect height="2.105086" rx=".737188" width="1.474376" x="17.091906" y="8.081117"/><rect height="2.100869" rx=".735916" width="1.471832" x="20.721464" y="8.086177"/><rect height="2.097495" rx=".734644" width="1.469289" x="24.351871" y="8.090394"/><rect height="2.094122" rx=".733796" width="1.467593" x="27.982277" y="8.094611"/><rect height="2.090748" rx=".732525" width="1.465049" x="31.611835" y="8.099671"/><rect height="2.108459" rx=".73846" width="1.476919" x="13.4615" y="12.03743"/><rect height="2.105086" rx=".737188" width="1.474376" x="17.091906" y="12.041647"/><rect height="2.100869" rx=".735916" width="1.471832" x="20.721464" y="12.045863"/><rect height="2.097495" rx=".734644" width="1.469289" x="24.351871" y="12.05008"/><rect height="2.094122" rx=".733796" width="1.467593" x="27.982277" y="12.055141"/><rect height="2.090748" rx=".732525" width="1.465049" x="31.611835" y="12.059358"/><rect height="2.090748" rx=".732525" width="1.465049" x="31.611835" y="15.986152"/><rect height="2.108459" rx=".73846" width="1.476919" x="13.4615" y="15.964224"/><rect height="2.090748" rx=".732525" width="1.465049" x="27.496471" y="15.975188"/><rect height="2.090748" rx=".732525" width="1.465049" x="17.407299" y="15.975188"/></g></g><g transform="translate(90 40)"><path d="m11.1538462 5.85219847v14.14780153h-11.1538462v-14.16972303h.04328358l5.52365098-5.83027697 5.52448334 5.83027697.0208094.0219215z" fill="url(#a)"/><path d="m11.1538462 5.76923077h24.2307692v14.23076923h-24.2307692z" fill="url(#b)"/><path d="m35.3846154 5.76923077-24.3377763-.00249247h-.0421798l-.02109-.02160138-5.59895392-5.74513692 24.42213602.00332329z" fill="#ccc"/><g fill="#666" transform="translate(21.5385 14.6154)"><path d="m.4269555.025h.001c-.001.017-.001.033-.001.05z"/><path d="m4.19748333.025v.05c0-.017 0-.033-.001-.05z"/><path d="m3.77036569 1.94851841v3.43609697h-3.77036569v-3.43609697c0-.01424723 0-.02765639.00083786-.04190362.02178433-1.02244837.8571298-1.84375936 1.88434498-1.84375936 1.02721519 0 1.86256065.82131099 1.88434499 1.84375936.00083786.01424723.00083786.02765639.00083786.04190362z"/></g><g fill="#808080"><rect height="2.108459" rx=".73846" width="1.476919" x="13.4615" y="8.0769"/><rect height="2.105086" rx=".737188" width="1.474376" x="17.091906" y="8.081117"/><rect height="2.100869" rx=".735916" width="1.471832" x="20.721464" y="8.086177"/><rect height="2.097495" rx=".734644" width="1.469289" x="24.351871" y="8.090394"/><rect height="2.094122" rx=".733796" width="1.467593" x="27.982277" y="8.094611"/><rect height="2.090748" rx=".732525" width="1.465049" x="31.611835" y="8.099671"/><rect height="2.108459" rx=".73846" width="1.476919" x="13.4615" y="12.03743"/><rect height="2.105086" rx=".737188" width="1.474376" x="17.091906" y="12.041647"/><rect height="2.100869" rx=".735916" width="1.471832" x="20.721464" y="12.045863"/><rect height="2.097495" rx=".734644" width="1.469289" x="24.351871" y="12.05008"/><rect height="2.094122" rx=".733796" width="1.467593" x="27.982277" y="12.055141"/><rect height="2.090748" rx=".732525" width="1.465049" x="31.611835" y="12.059358"/><rect height="2.090748" rx=".732525" width="1.465049" x="31.611835" y="15.986152"/><rect height="2.108459" rx=".73846" width="1.476919" x="13.4615" y="15.964224"/><rect height="2.090748" rx=".732525" width="1.465049" x="27.496471" y="15.975188"/><rect height="2.090748" rx=".732525" width="1.465049" x="17.407299" y="15.975188"/></g></g><g><path d="m11.1538462 5.85219847v14.14780153h-11.1538462v-14.16972303h.04328358l5.52365098-5.83027697 5.52448334 5.83027697.0208094.0219215z" fill="url(#a)"/><path d="m11.1538462 5.76923077h24.2307692v14.23076923h-24.2307692z" fill="url(#b)"/><path d="m35.3846154 5.76923077-24.3377763-.00249247h-.0421798l-.02109-.02160138-5.59895392-5.74513692 24.42213602.00332329z" fill="#ccc"/><g fill="#666" transform="translate(21.5385 14.6154)"><path d="m.4269555.025h.001c-.001.017-.001.033-.001.05z"/><path d="m4.19748333.025v.05c0-.017 0-.033-.001-.05z"/><path d="m3.77036569 1.94851841v3.43609697h-3.77036569v-3.43609697c0-.01424723 0-.02765639.00083786-.04190362.02178433-1.02244837.8571298-1.84375936 1.88434498-1.84375936 1.02721519 0 1.86256065.82131099 1.88434499 1.84375936.00083786.01424723.00083786.02765639.00083786.04190362z"/></g><g fill="#808080"><rect height="2.108459" rx=".73846" width="1.476919" x="13.4615" y="8.0769"/><rect height="2.105086" rx=".737188" width="1.474376" x="17.091906" y="8.081117"/><rect height="2.100869" rx=".735916" width="1.471832" x="20.721464" y="8.086177"/><rect height="2.097495" rx=".734644" width="1.469289" x="24.351871" y="8.090394"/><rect height="2.094122" rx=".733796" width="1.467593" x="27.982277" y="8.094611"/><rect height="2.090748" rx=".732525" width="1.465049" x="31.611835" y="8.099671"/><rect height="2.108459" rx=".73846" width="1.476919" x="13.4615" y="12.03743"/><rect height="2.105086" rx=".737188" width="1.474376" x="17.091906" y="12.041647"/><rect height="2.100869" rx=".735916" width="1.471832" x="20.721464" y="12.045863"/><rect height="2.097495" rx=".734644" width="1.469289" x="24.351871" y="12.05008"/><rect height="2.094122" rx=".733796" width="1.467593" x="27.982277" y="12.055141"/><rect height="2.090748" rx=".732525" width="1.465049" x="31.611835" y="12.059358"/><rect height="2.090748" rx=".732525" width="1.465049" x="31.611835" y="15.986152"/><rect height="2.108459" rx=".73846" width="1.476919" x="13.4615" y="15.964224"/><rect height="2.090748" rx=".732525" width="1.465049" x="27.496471" y="15.975188"/><rect height="2.090748" rx=".732525" width="1.465049" x="17.407299" y="15.975188"/></g></g><g transform="translate(45)"><path d="m11.1538462 5.85219847v14.14780153h-11.1538462v-14.16972303h.04328358l5.52365098-5.83027697 5.52448334 5.83027697.0208094.0219215z" fill="url(#a)"/><path d="m11.1538462 5.76923077h24.2307692v14.23076923h-24.2307692z" fill="url(#b)"/><path d="m35.3846154 5.76923077-24.3377763-.00249247h-.0421798l-.02109-.02160138-5.59895392-5.74513692 24.42213602.00332329z" fill="#ccc"/><g fill="#666" transform="translate(21.5385 14.6154)"><path d="m.4269555.025h.001c-.001.017-.001.033-.001.05z"/><path d="m4.19748333.025v.05c0-.017 0-.033-.001-.05z"/><path d="m3.77036569 1.94851841v3.43609697h-3.77036569v-3.43609697c0-.01424723 0-.02765639.00083786-.04190362.02178433-1.02244837.8571298-1.84375936 1.88434498-1.84375936 1.02721519 0 1.86256065.82131099 1.88434499 1.84375936.00083786.01424723.00083786.02765639.00083786.04190362z"/></g><g fill="#808080"><rect height="2.108459" rx=".73846" width="1.476919" x="13.4615" y="8.0769"/><rect height="2.105086" rx=".737188" width="1.474376" x="17.091906" y="8.081117"/><rect height="2.100869" rx=".735916" width="1.471832" x="20.721464" y="8.086177"/><rect height="2.097495" rx=".734644" width="1.469289" x="24.351871" y="8.090394"/><rect height="2.094122" rx=".733796" width="1.467593" x="27.982277" y="8.094611"/><rect height="2.090748" rx=".732525" width="1.465049" x="31.611835" y="8.099671"/><rect height="2.108459" rx=".73846" width="1.476919" x="13.4615" y="12.03743"/><rect height="2.105086" rx=".737188" width="1.474376" x="17.091906" y="12.041647"/><rect height="2.100869" rx=".735916" width="1.471832" x="20.721464" y="12.045863"/><rect height="2.097495" rx=".734644" width="1.469289" x="24.351871" y="12.05008"/><rect height="2.094122" rx=".733796" width="1.467593" x="27.982277" y="12.055141"/><rect height="2.090748" rx=".732525" width="1.465049" x="31.611835" y="12.059358"/><rect height="2.090748" rx=".732525" width="1.465049" x="31.611835" y="15.986152"/><rect height="2.108459" rx=".73846" width="1.476919" x="13.4615" y="15.964224"/><rect height="2.090748" rx=".732525" width="1.465049" x="27.496471" y="15.975188"/><rect height="2.090748" rx=".732525" width="1.465049" x="17.407299" y="15.975188"/></g></g></g></svg>