<svg height="64" viewBox="0 0 112 64" width="112" xmlns="http://www.w3.org/2000/svg" xmlns:xlink="http://www.w3.org/1999/xlink"><linearGradient id="a" x1="50%" x2="50%" y1="100%" y2="0%"><stop offset=".35" stop-color="#e6e6e6"/><stop offset=".63" stop-color="#e4e4e4"/><stop offset=".73" stop-color="#ddd"/><stop offset=".8" stop-color="#d1d1d1"/><stop offset=".86" stop-color="#c0c0c0"/><stop offset=".91" stop-color="#aaa"/><stop offset=".95" stop-color="#8f8f8f"/><stop offset=".99" stop-color="#6f6f6f"/><stop offset="1" stop-color="#666"/></linearGradient><mask id="b" fill="#fff"><path d="m12.401897 6.27039301v17.69816599h-12.401897v-17.69816599c0-.04716157 0-.09117904.00314317-.13938864.07124516-3.39248909 2.80684988-6.11842795 6.17632702-6.13100437h.02200218c3.37890664 0 6.12603633 2.73117904 6.19728143 6.13100437.0031432.0482096.0031432.09222707.0031432.13938864z" fill="#fff" fill-rule="evenodd"/></mask><mask id="c" fill="#fff"><path d="m12.401897 6.27039301v17.69816599h-12.401897v-17.69816599c0-.04716157 0-.09117904.00314317-.13938864.07124516-3.39248909 2.80684988-6.11842795 6.17632702-6.13100437h.02200218c3.37890664 0 6.12603633 2.73117904 6.19728143 6.13100437.0031432.0482096.0031432.09222707.0031432.13938864z" fill="#fff" fill-rule="evenodd"/></mask><mask id="d" fill="#fff"><path d="m12.401897 6.27039301v17.69816599h-12.401897v-17.69816599c0-.04716157 0-.09117904.00314317-.13938864.07124516-3.39248909 2.80684988-6.11842795 6.17632702-6.13100437h.02200218c3.37890664 0 6.12603633 2.73117904 6.19728143 6.13100437.0031432.0482096.0031432.09222707.0031432.13938864z" fill="#fff" fill-rule="evenodd"/></mask><mask id="e" fill="#fff"><path d="m12.401897 6.27039301v17.69816599h-12.401897v-17.69816599c0-.04716157 0-.09117904.00314317-.13938864.07124516-3.39248909 2.80684988-6.11842795 6.17632702-6.13100437h.02200218c3.37890664 0 6.12603633 2.73117904 6.19728143 6.13100437.0031432.0482096.0031432.09222707.0031432.13938864z" fill="#fff" fill-rule="evenodd"/></mask><g fill="none" fill-rule="nonzero"><g transform="translate(40)"><path d="m32.16 6.30569745v17.69430255h-18.5193227v-.005239h-12.6806773v-.0314342h9.2925507v-17.69430257c0-.04715128 0-.09115914-.0041764-.13935822.0041764-2.88146693-2.50167997-6.12966601-6.26046452-6.12966601h18.89833342v.03667322h.0135734c5.0451242 0 9.148464 2.73058284 9.256007 6.12966601.0041764.04819908.0041764.09220694.0041764.13935822z" fill="url(#a)"/><g fill="#666"><g mask="url(#b)"><g transform="translate(-1.1127 -5.2936)"><path d="m.12991765 37.9063755.10791547.3856769 13.72621888-8.7028821-.1089632-.3856769z"/><path d="m.12677448 37.1580786.10791547.3856769 13.72621885-8.7028821-.1089632-.3856769z"/><path d="m.12258359 36.4087336.10896319.3856769 13.72517112-8.7018341-.1079154-.3867249z"/><path d="m.11944042 35.6604367.10896319.3856768 13.72517119-8.7028821-.1079155-.3856768z"/><path d="m.11629725 34.9110917.10896319.3867249 13.72517116-8.7028821-.1089632-.3867249z"/><path d="m.11315408 34.1627948.10896319.3856768 13.72517113-8.7028821-.1089632-.3856768z"/><path d="m.11001091 33.4134498.10791547.3867249 13.72621892-8.7028821-.1089632-.3867249z"/><path d="m.10686775 32.6651528.10791546.3856769 13.72621889-8.7028821-.1089632-.3856769z"/><path d="m.10267685 31.9158079.10896319.3867249 13.72517116-8.7028821-.1079155-.3867249z"/><path d="m.09953368 31.1675109.1089632.3856769 13.72517112-8.7028821-.1079154-.3856769z"/><path d="m.09639051 30.4181659.1089632.3867249 13.72517119-8.7028821-.1089632-.3867249z"/><path d="m.09324735 29.669869.10896319.3856769 13.72517116-8.7028821-.1089632-.3856769z"/><path d="m.09010418 28.920524.10791547.3867249 13.72621885-8.7028821-.1089632-.3867249z"/><path d="m.08696101 28.1722271.10791547.3856768 13.72621882-8.7028821-.1089631-.3856768z"/><path d="m.08277012 27.4228821.10896319.3867249 13.72517119-8.7028821-.1079155-.3867249z"/><path d="m.07962695 26.6745852.10896319.3856768 13.72517116-8.7028821-.1079155-.3856768z"/><path d="m.07648378 25.9252402.10896319.3867249 13.72517113-8.7028821-.1089632-.3867249z"/><path d="m.07334061 25.1769432.10896319.3856769 13.7251711-8.7028821-.1089631-.3856769z"/><path d="m.07019744 24.4275983.10791547.3867248 13.72621889-8.7028821-.1089632-.3867248z"/><path d="m.06705427 23.6793013.10791547.3856769 13.72517116-8.7028821-.1079155-.3856769z"/><path d="m.06286338 22.9299563.10896319.3867249 13.72517113-8.7028821-.1079154-.3856768z"/><path d="m.05972021 22.1816594.10896319.3856768 13.7251711-8.7028821-.1079154-.3856768z"/><path d="m.05657704 21.4333624.10896319.3856769 13.72517117-8.7028821-.1089632-.3856769z"/><path d="m.05343387 20.6840175.10896319.3856768 13.72517114-8.7028821-.1089632-.3856768z"/><path d="m.0502907 19.9357205.10791547.3856769 13.72621883-8.7028821-.1089631-.3856769z"/><path d="m.04714753 19.1863755.10791547.3856769 13.7251712-8.7028821-.1079155-.3856769z"/><path d="m.04295664 18.4380786.10896319.3856769 13.72517117-8.7028821-.1079155-.38567689z"/><path d="m.03981347 17.6887336.10896319.3856769 13.72517114-8.70288212-.1079155-.38567685z"/><path d="m.0366703 16.9404367.1089632.3856768 13.7251711-8.70288206-.1089631-.38567685z"/><path d="m.03352714 16.1910917.10896319.3856769 13.72517117-8.7018341-.1089632-.38672489z"/><path d="m.03038397 15.4427948.10791546.3856768 13.72621887-8.70288208-.1089632-.38567686z"/><path d="m.0272408 14.6934498.10791547.3867249 13.72517113-8.70288212-.1079155-.38672489z"/><path d="m.02304991 13.9451528.10896319.3856769 13.7251711-8.7028821-.1079154-.38567686z"/><path d="m.01990674 13.1958079.10896319.3867249 13.72517117-8.70288214-.1089632-.3867249z"/><path d="m.01676357 12.4475109.10896319.3856769 13.72517114-8.70288212-.1089632-.38567686z"/><path d="m.0136204 11.6981659.10791547.3867249 13.72621883-8.70288207-.1089632-.38672489z"/><path d="m.01047723 10.949869.10791547.3856769 13.7262189-8.70288214-.1089632-.38567686z"/><path d="m.00733406 10.200524.10791547.3867249 13.72517117-8.70288209-.1079155-.38672489z"/><path d="m.00314317 9.45222707.10896319.38567686 13.72517114-8.7028821-.1079155-.38567685z"/><path d="m0 8.7028821.10896319.38672489 13.72517111-8.7028821-.1089632-.38672489z"/></g></g><rect height="1.886463" rx=".942951" width="1.885901" x="14.916432" y="11.004367"/><rect height="1.886463" rx=".942951" width="1.885901" x="17.640512" y="11.004367"/><rect height="1.886463" rx=".942951" width="1.885901" x="14.916432" y="8.279476"/><rect height="1.886463" rx=".942951" width="1.885901" x="17.640512" y="8.279476"/><rect height="1.886463" rx=".942951" width="1.885901" x="20.993226" y="11.004367"/><rect height="1.886463" rx=".942951" width="1.885901" x="23.717305" y="11.004367"/><rect height="1.886463" rx=".942951" width="1.885901" x="20.993226" y="8.279476"/><rect height="1.886463" rx=".942951" width="1.885901" x="23.717305" y="8.279476"/><rect height="1.886463" rx=".942951" width="1.885901" x="27.070019" y="11.004367"/><rect height="1.886463" rx=".942951" width="1.885901" x="29.794099" y="11.004367"/><rect height="1.886463" rx=".942951" width="1.885901" x="27.070019" y="8.279476"/><rect height="1.886463" rx=".942951" width="1.885901" x="29.794099" y="8.279476"/><path d="m18.1612303 17.7117904h2.5208215c.4609981 0 .8350352.3741485.8350352.8352838v5.4529258h-4.1908919v-5.4529258c0-.4611353.3740371-.8352838.8350352-.8352838z"/><path d="m26.3334696 17.7117904h2.5208215c.4609981 0 .8350352.3741485.8350352.8352838v5.4529258h-4.1908919v-5.4529258c0-.4611353.3740371-.8352838.8350352-.8352838z"/></g></g><g transform="translate(80.1389)"><path d="m32.16 6.30569745v17.69430255h-18.5193227v-.005239h-12.6806773v-.0314342h9.2925507v-17.69430257c0-.04715128 0-.09115914-.0041764-.13935822.0041764-2.88146693-2.50167997-6.12966601-6.26046452-6.12966601h18.89833342v.03667322h.0135734c5.0451242 0 9.148464 2.73058284 9.256007 6.12966601.0041764.04819908.0041764.09220694.0041764.13935822z" fill="url(#a)"/><g fill="#666"><g mask="url(#c)"><g transform="translate(-1.1127 -5.2936)"><path d="m.12991765 37.9063755.10791547.3856769 13.72621888-8.7028821-.1089632-.3856769z"/><path d="m.12677448 37.1580786.10791547.3856769 13.72621885-8.7028821-.1089632-.3856769z"/><path d="m.12258359 36.4087336.10896319.3856769 13.72517112-8.7018341-.1079154-.3867249z"/><path d="m.11944042 35.6604367.10896319.3856768 13.72517119-8.7028821-.1079155-.3856768z"/><path d="m.11629725 34.9110917.10896319.3867249 13.72517116-8.7028821-.1089632-.3867249z"/><path d="m.11315408 34.1627948.10896319.3856768 13.72517113-8.7028821-.1089632-.3856768z"/><path d="m.11001091 33.4134498.10791547.3867249 13.72621892-8.7028821-.1089632-.3867249z"/><path d="m.10686775 32.6651528.10791546.3856769 13.72621889-8.7028821-.1089632-.3856769z"/><path d="m.10267685 31.9158079.10896319.3867249 13.72517116-8.7028821-.1079155-.3867249z"/><path d="m.09953368 31.1675109.1089632.3856769 13.72517112-8.7028821-.1079154-.3856769z"/><path d="m.09639051 30.4181659.1089632.3867249 13.72517119-8.7028821-.1089632-.3867249z"/><path d="m.09324735 29.669869.10896319.3856769 13.72517116-8.7028821-.1089632-.3856769z"/><path d="m.09010418 28.920524.10791547.3867249 13.72621885-8.7028821-.1089632-.3867249z"/><path d="m.08696101 28.1722271.10791547.3856768 13.72621882-8.7028821-.1089631-.3856768z"/><path d="m.08277012 27.4228821.10896319.3867249 13.72517119-8.7028821-.1079155-.3867249z"/><path d="m.07962695 26.6745852.10896319.3856768 13.72517116-8.7028821-.1079155-.3856768z"/><path d="m.07648378 25.9252402.10896319.3867249 13.72517113-8.7028821-.1089632-.3867249z"/><path d="m.07334061 25.1769432.10896319.3856769 13.7251711-8.7028821-.1089631-.3856769z"/><path d="m.07019744 24.4275983.10791547.3867248 13.72621889-8.7028821-.1089632-.3867248z"/><path d="m.06705427 23.6793013.10791547.3856769 13.72517116-8.7028821-.1079155-.3856769z"/><path d="m.06286338 22.9299563.10896319.3867249 13.72517113-8.7028821-.1079154-.3856768z"/><path d="m.05972021 22.1816594.10896319.3856768 13.7251711-8.7028821-.1079154-.3856768z"/><path d="m.05657704 21.4333624.10896319.3856769 13.72517117-8.7028821-.1089632-.3856769z"/><path d="m.05343387 20.6840175.10896319.3856768 13.72517114-8.7028821-.1089632-.3856768z"/><path d="m.0502907 19.9357205.10791547.3856769 13.72621883-8.7028821-.1089631-.3856769z"/><path d="m.04714753 19.1863755.10791547.3856769 13.7251712-8.7028821-.1079155-.3856769z"/><path d="m.04295664 18.4380786.10896319.3856769 13.72517117-8.7028821-.1079155-.38567689z"/><path d="m.03981347 17.6887336.10896319.3856769 13.72517114-8.70288212-.1079155-.38567685z"/><path d="m.0366703 16.9404367.1089632.3856768 13.7251711-8.70288206-.1089631-.38567685z"/><path d="m.03352714 16.1910917.10896319.3856769 13.72517117-8.7018341-.1089632-.38672489z"/><path d="m.03038397 15.4427948.10791546.3856768 13.72621887-8.70288208-.1089632-.38567686z"/><path d="m.0272408 14.6934498.10791547.3867249 13.72517113-8.70288212-.1079155-.38672489z"/><path d="m.02304991 13.9451528.10896319.3856769 13.7251711-8.7028821-.1079154-.38567686z"/><path d="m.01990674 13.1958079.10896319.3867249 13.72517117-8.70288214-.1089632-.3867249z"/><path d="m.01676357 12.4475109.10896319.3856769 13.72517114-8.70288212-.1089632-.38567686z"/><path d="m.0136204 11.6981659.10791547.3867249 13.72621883-8.70288207-.1089632-.38672489z"/><path d="m.01047723 10.949869.10791547.3856769 13.7262189-8.70288214-.1089632-.38567686z"/><path d="m.00733406 10.200524.10791547.3867249 13.72517117-8.70288209-.1079155-.38672489z"/><path d="m.00314317 9.45222707.10896319.38567686 13.72517114-8.7028821-.1079155-.38567685z"/><path d="m0 8.7028821.10896319.38672489 13.72517111-8.7028821-.1089632-.38672489z"/></g></g><rect height="1.886463" rx=".942951" width="1.885901" x="14.916432" y="11.004367"/><rect height="1.886463" rx=".942951" width="1.885901" x="17.640512" y="11.004367"/><rect height="1.886463" rx=".942951" width="1.885901" x="14.916432" y="8.279476"/><rect height="1.886463" rx=".942951" width="1.885901" x="17.640512" y="8.279476"/><rect height="1.886463" rx=".942951" width="1.885901" x="20.993226" y="11.004367"/><rect height="1.886463" rx=".942951" width="1.885901" x="23.717305" y="11.004367"/><rect height="1.886463" rx=".942951" width="1.885901" x="20.993226" y="8.279476"/><rect height="1.886463" rx=".942951" width="1.885901" x="23.717305" y="8.279476"/><rect height="1.886463" rx=".942951" width="1.885901" x="27.070019" y="11.004367"/><rect height="1.886463" rx=".942951" width="1.885901" x="29.794099" y="11.004367"/><rect height="1.886463" rx=".942951" width="1.885901" x="27.070019" y="8.279476"/><rect height="1.886463" rx=".942951" width="1.885901" x="29.794099" y="8.279476"/><path d="m18.1612303 17.7117904h2.5208215c.4609981 0 .8350352.3741485.8350352.8352838v5.4529258h-4.1908919v-5.4529258c0-.4611353.3740371-.8352838.8350352-.8352838z"/><path d="m26.3334696 17.7117904h2.5208215c.4609981 0 .8350352.3741485.8350352.8352838v5.4529258h-4.1908919v-5.4529258c0-.4611353.3740371-.8352838.8350352-.8352838z"/></g></g><g transform="translate(0 40)"><path d="m32.16 6.30569745v17.69430255h-18.5193227v-.005239h-12.6806773v-.0314342h9.2925507v-17.69430257c0-.04715128 0-.09115914-.0041764-.13935822.0041764-2.88146693-2.50167997-6.12966601-6.26046452-6.12966601h18.89833342v.03667322h.0135734c5.0451242 0 9.148464 2.73058284 9.256007 6.12966601.0041764.04819908.0041764.09220694.0041764.13935822z" fill="url(#a)"/><g fill="#666"><g mask="url(#d)"><g transform="translate(-1.1127 -5.2936)"><path d="m.12991765 37.9063755.10791547.3856769 13.72621888-8.7028821-.1089632-.3856769z"/><path d="m.12677448 37.1580786.10791547.3856769 13.72621885-8.7028821-.1089632-.3856769z"/><path d="m.12258359 36.4087336.10896319.3856769 13.72517112-8.7018341-.1079154-.3867249z"/><path d="m.11944042 35.6604367.10896319.3856768 13.72517119-8.7028821-.1079155-.3856768z"/><path d="m.11629725 34.9110917.10896319.3867249 13.72517116-8.7028821-.1089632-.3867249z"/><path d="m.11315408 34.1627948.10896319.3856768 13.72517113-8.7028821-.1089632-.3856768z"/><path d="m.11001091 33.4134498.10791547.3867249 13.72621892-8.7028821-.1089632-.3867249z"/><path d="m.10686775 32.6651528.10791546.3856769 13.72621889-8.7028821-.1089632-.3856769z"/><path d="m.10267685 31.9158079.10896319.3867249 13.72517116-8.7028821-.1079155-.3867249z"/><path d="m.09953368 31.1675109.1089632.3856769 13.72517112-8.7028821-.1079154-.3856769z"/><path d="m.09639051 30.4181659.1089632.3867249 13.72517119-8.7028821-.1089632-.3867249z"/><path d="m.09324735 29.669869.10896319.3856769 13.72517116-8.7028821-.1089632-.3856769z"/><path d="m.09010418 28.920524.10791547.3867249 13.72621885-8.7028821-.1089632-.3867249z"/><path d="m.08696101 28.1722271.10791547.3856768 13.72621882-8.7028821-.1089631-.3856768z"/><path d="m.08277012 27.4228821.10896319.3867249 13.72517119-8.7028821-.1079155-.3867249z"/><path d="m.07962695 26.6745852.10896319.3856768 13.72517116-8.7028821-.1079155-.3856768z"/><path d="m.07648378 25.9252402.10896319.3867249 13.72517113-8.7028821-.1089632-.3867249z"/><path d="m.07334061 25.1769432.10896319.3856769 13.7251711-8.7028821-.1089631-.3856769z"/><path d="m.07019744 24.4275983.10791547.3867248 13.72621889-8.7028821-.1089632-.3867248z"/><path d="m.06705427 23.6793013.10791547.3856769 13.72517116-8.7028821-.1079155-.3856769z"/><path d="m.06286338 22.9299563.10896319.3867249 13.72517113-8.7028821-.1079154-.3856768z"/><path d="m.05972021 22.1816594.10896319.3856768 13.7251711-8.7028821-.1079154-.3856768z"/><path d="m.05657704 21.4333624.10896319.3856769 13.72517117-8.7028821-.1089632-.3856769z"/><path d="m.05343387 20.6840175.10896319.3856768 13.72517114-8.7028821-.1089632-.3856768z"/><path d="m.0502907 19.9357205.10791547.3856769 13.72621883-8.7028821-.1089631-.3856769z"/><path d="m.04714753 19.1863755.10791547.3856769 13.7251712-8.7028821-.1079155-.3856769z"/><path d="m.04295664 18.4380786.10896319.3856769 13.72517117-8.7028821-.1079155-.38567689z"/><path d="m.03981347 17.6887336.10896319.3856769 13.72517114-8.70288212-.1079155-.38567685z"/><path d="m.0366703 16.9404367.1089632.3856768 13.7251711-8.70288206-.1089631-.38567685z"/><path d="m.03352714 16.1910917.10896319.3856769 13.72517117-8.7018341-.1089632-.38672489z"/><path d="m.03038397 15.4427948.10791546.3856768 13.72621887-8.70288208-.1089632-.38567686z"/><path d="m.0272408 14.6934498.10791547.3867249 13.72517113-8.70288212-.1079155-.38672489z"/><path d="m.02304991 13.9451528.10896319.3856769 13.7251711-8.7028821-.1079154-.38567686z"/><path d="m.01990674 13.1958079.10896319.3867249 13.72517117-8.70288214-.1089632-.3867249z"/><path d="m.01676357 12.4475109.10896319.3856769 13.72517114-8.70288212-.1089632-.38567686z"/><path d="m.0136204 11.6981659.10791547.3867249 13.72621883-8.70288207-.1089632-.38672489z"/><path d="m.01047723 10.949869.10791547.3856769 13.7262189-8.70288214-.1089632-.38567686z"/><path d="m.00733406 10.200524.10791547.3867249 13.72517117-8.70288209-.1079155-.38672489z"/><path d="m.00314317 9.45222707.10896319.38567686 13.72517114-8.7028821-.1079155-.38567685z"/><path d="m0 8.7028821.10896319.38672489 13.72517111-8.7028821-.1089632-.38672489z"/></g></g><rect height="1.886463" rx=".942951" width="1.885901" x="14.916432" y="11.004367"/><rect height="1.886463" rx=".942951" width="1.885901" x="17.640512" y="11.004367"/><rect height="1.886463" rx=".942951" width="1.885901" x="14.916432" y="8.279476"/><rect height="1.886463" rx=".942951" width="1.885901" x="17.640512" y="8.279476"/><rect height="1.886463" rx=".942951" width="1.885901" x="20.993226" y="11.004367"/><rect height="1.886463" rx=".942951" width="1.885901" x="23.717305" y="11.004367"/><rect height="1.886463" rx=".942951" width="1.885901" x="20.993226" y="8.279476"/><rect height="1.886463" rx=".942951" width="1.885901" x="23.717305" y="8.279476"/><rect height="1.886463" rx=".942951" width="1.885901" x="27.070019" y="11.004367"/><rect height="1.886463" rx=".942951" width="1.885901" x="29.794099" y="11.004367"/><rect height="1.886463" rx=".942951" width="1.885901" x="27.070019" y="8.279476"/><rect height="1.886463" rx=".942951" width="1.885901" x="29.794099" y="8.279476"/><path d="m18.1612303 17.7117904h2.5208215c.4609981 0 .8350352.3741485.8350352.8352838v5.4529258h-4.1908919v-5.4529258c0-.4611353.3740371-.8352838.8350352-.8352838z"/><path d="m26.3334696 17.7117904h2.5208215c.4609981 0 .8350352.3741485.8350352.8352838v5.4529258h-4.1908919v-5.4529258c0-.4611353.3740371-.8352838.8350352-.8352838z"/></g></g><g transform="translate(40.1389 40)"><path d="m32.16 6.30569745v17.69430255h-18.5193227v-.005239h-12.6806773v-.0314342h9.2925507v-17.69430257c0-.04715128 0-.09115914-.0041764-.13935822.0041764-2.88146693-2.50167997-6.12966601-6.26046452-6.12966601h18.89833342v.03667322h.0135734c5.0451242 0 9.148464 2.73058284 9.256007 6.12966601.0041764.04819908.0041764.09220694.0041764.13935822z" fill="url(#a)"/><g fill="#666"><g mask="url(#e)"><g transform="translate(-1.1127 -5.2936)"><path d="m.12991765 37.9063755.10791547.3856769 13.72621888-8.7028821-.1089632-.3856769z"/><path d="m.12677448 37.1580786.10791547.3856769 13.72621885-8.7028821-.1089632-.3856769z"/><path d="m.12258359 36.4087336.10896319.3856769 13.72517112-8.7018341-.1079154-.3867249z"/><path d="m.11944042 35.6604367.10896319.3856768 13.72517119-8.7028821-.1079155-.3856768z"/><path d="m.11629725 34.9110917.10896319.3867249 13.72517116-8.7028821-.1089632-.3867249z"/><path d="m.11315408 34.1627948.10896319.3856768 13.72517113-8.7028821-.1089632-.3856768z"/><path d="m.11001091 33.4134498.10791547.3867249 13.72621892-8.7028821-.1089632-.3867249z"/><path d="m.10686775 32.6651528.10791546.3856769 13.72621889-8.7028821-.1089632-.3856769z"/><path d="m.10267685 31.9158079.10896319.3867249 13.72517116-8.7028821-.1079155-.3867249z"/><path d="m.09953368 31.1675109.1089632.3856769 13.72517112-8.7028821-.1079154-.3856769z"/><path d="m.09639051 30.4181659.1089632.3867249 13.72517119-8.7028821-.1089632-.3867249z"/><path d="m.09324735 29.669869.10896319.3856769 13.72517116-8.7028821-.1089632-.3856769z"/><path d="m.09010418 28.920524.10791547.3867249 13.72621885-8.7028821-.1089632-.3867249z"/><path d="m.08696101 28.1722271.10791547.3856768 13.72621882-8.7028821-.1089631-.3856768z"/><path d="m.08277012 27.4228821.10896319.3867249 13.72517119-8.7028821-.1079155-.3867249z"/><path d="m.07962695 26.6745852.10896319.3856768 13.72517116-8.7028821-.1079155-.3856768z"/><path d="m.07648378 25.9252402.10896319.3867249 13.72517113-8.7028821-.1089632-.3867249z"/><path d="m.07334061 25.1769432.10896319.3856769 13.7251711-8.7028821-.1089631-.3856769z"/><path d="m.07019744 24.4275983.10791547.3867248 13.72621889-8.7028821-.1089632-.3867248z"/><path d="m.06705427 23.6793013.10791547.3856769 13.72517116-8.7028821-.1079155-.3856769z"/><path d="m.06286338 22.9299563.10896319.3867249 13.72517113-8.7028821-.1079154-.3856768z"/><path d="m.05972021 22.1816594.10896319.3856768 13.7251711-8.7028821-.1079154-.3856768z"/><path d="m.05657704 21.4333624.10896319.3856769 13.72517117-8.7028821-.1089632-.3856769z"/><path d="m.05343387 20.6840175.10896319.3856768 13.72517114-8.7028821-.1089632-.3856768z"/><path d="m.0502907 19.9357205.10791547.3856769 13.72621883-8.7028821-.1089631-.3856769z"/><path d="m.04714753 19.1863755.10791547.3856769 13.7251712-8.7028821-.1079155-.3856769z"/><path d="m.04295664 18.4380786.10896319.3856769 13.72517117-8.7028821-.1079155-.38567689z"/><path d="m.03981347 17.6887336.10896319.3856769 13.72517114-8.70288212-.1079155-.38567685z"/><path d="m.0366703 16.9404367.1089632.3856768 13.7251711-8.70288206-.1089631-.38567685z"/><path d="m.03352714 16.1910917.10896319.3856769 13.72517117-8.7018341-.1089632-.38672489z"/><path d="m.03038397 15.4427948.10791546.3856768 13.72621887-8.70288208-.1089632-.38567686z"/><path d="m.0272408 14.6934498.10791547.3867249 13.72517113-8.70288212-.1079155-.38672489z"/><path d="m.02304991 13.9451528.10896319.3856769 13.7251711-8.7028821-.1079154-.38567686z"/><path d="m.01990674 13.1958079.10896319.3867249 13.72517117-8.70288214-.1089632-.3867249z"/><path d="m.01676357 12.4475109.10896319.3856769 13.72517114-8.70288212-.1089632-.38567686z"/><path d="m.0136204 11.6981659.10791547.3867249 13.72621883-8.70288207-.1089632-.38672489z"/><path d="m.01047723 10.949869.10791547.3856769 13.7262189-8.70288214-.1089632-.38567686z"/><path d="m.00733406 10.200524.10791547.3867249 13.72517117-8.70288209-.1079155-.38672489z"/><path d="m.00314317 9.45222707.10896319.38567686 13.72517114-8.7028821-.1079155-.38567685z"/><path d="m0 8.7028821.10896319.38672489 13.72517111-8.7028821-.1089632-.38672489z"/></g></g><rect height="1.886463" rx=".942951" width="1.885901" x="14.916432" y="11.004367"/><rect height="1.886463" rx=".942951" width="1.885901" x="17.640512" y="11.004367"/><rect height="1.886463" rx=".942951" width="1.885901" x="14.916432" y="8.279476"/><rect height="1.886463" rx=".942951" width="1.885901" x="17.640512" y="8.279476"/><rect height="1.886463" rx=".942951" width="1.885901" x="20.993226" y="11.004367"/><rect height="1.886463" rx=".942951" width="1.885901" x="23.717305" y="11.004367"/><rect height="1.886463" rx=".942951" width="1.885901" x="20.993226" y="8.279476"/><rect height="1.886463" rx=".942951" width="1.885901" x="23.717305" y="8.279476"/><rect height="1.886463" rx=".942951" width="1.885901" x="27.070019" y="11.004367"/><rect height="1.886463" rx=".942951" width="1.885901" x="29.794099" y="11.004367"/><rect height="1.886463" rx=".942951" width="1.885901" x="27.070019" y="8.279476"/><rect height="1.886463" rx=".942951" width="1.885901" x="29.794099" y="8.279476"/><path d="m18.1612303 17.7117904h2.5208215c.4609981 0 .8350352.3741485.8350352.8352838v5.4529258h-4.1908919v-5.4529258c0-.4611353.3740371-.8352838.8350352-.8352838z"/><path d="m26.3334696 17.7117904h2.5208215c.4609981 0 .8350352.3741485.8350352.8352838v5.4529258h-4.1908919v-5.4529258c0-.4611353.3740371-.8352838.8350352-.8352838z"/></g></g></g></svg>