<svg height="32" viewBox="0 0 79 32" width="79" xmlns="http://www.w3.org/2000/svg" xmlns:xlink="http://www.w3.org/1999/xlink"><linearGradient id="a"><stop offset=".35" stop-color="#e6e6e6"/><stop offset=".63" stop-color="#e4e4e4"/><stop offset=".73" stop-color="#ddd"/><stop offset=".8" stop-color="#d1d1d1"/><stop offset=".86" stop-color="#c0c0c0"/><stop offset=".91" stop-color="#aaa"/><stop offset=".95" stop-color="#8f8f8f"/><stop offset=".99" stop-color="#6f6f6f"/><stop offset="1" stop-color="#666"/></linearGradient><linearGradient id="b" x1="50%" x2="50%" xlink:href="#a" y1="100%" y2="0%"/><linearGradient id="c" x1="29.423282%" x2="50%" xlink:href="#a" y1="100%" y2="0%"/><g fill="none" fill-rule="nonzero"><g transform="translate(59.9954)"><path d="m19.0877193 2.52631579c0 1.39512961-4.2729701 2.52631579-9.54385965 2.52631579-5.27088951 0-9.54385965-1.13118618-9.54385965-2.52631579 0-.01413983 0-.02710134.00223248-.04124116.08260183-1.37627652 4.32320099-2.48507463 9.54162717-2.48507463 5.21842615 0 9.45902535 1.10879811 9.54162715 2.48507463.0022325.01413982.0022325.02710133.0022325.04124116z" fill="url(#b)"/><path d="m19.0877193 2.52631579c0 1.39512961-4.2729701 2.52631579-9.54385965 2.52631579-5.27088951 0-9.54385965-1.13118618-9.54385965-2.52631579 0-.01413983 0-.02710134.00223248-.04124116.08260183-1.37627652 4.32320099-2.48507463 9.54162717-2.48507463 5.21842615 0 9.45902535 1.10879811 9.54162715 2.48507463.0022325.01413982.0022325.02710133.0022325.04124116z" fill="#666"/><path d="m19.0877193 29.530667h-.0022325c.0022325.0135989.0022325.0260646.0022325.0396635 0 1.1207757-2.9803632 2.0636325-7.0323176 2.3446764-.8003448.0555288-1.6419904.0849931-2.51154205.0849931-.86955166 0-1.71119729-.0294643-2.51154201-.0849931-4.05195445-.2810439-7.03231764-1.2239007-7.03231764-2.3446764 0-.0135989 0-.0260646.00223248-.0396635h-.00223248v-27.28505296c0 1.3417578 4.27297014 2.42966954 9.54385965 2.42966954 5.27088955 0 9.54385965-1.08791174 9.54385965-2.42966954z" fill="url(#c)"/><path d="m12.3508772 25.4822422v6.4356012c-.8050526.0536756-1.6516491.0821566-2.5263158.0821566-.87466666 0-1.72126315-.028481-2.52631579-.0821566v-6.4356012c0-.0186222 0-.0361489.00112281-.0547711.02919298-1.3364142 1.14863158-2.4099272 2.52519298-2.4099272s2.496 1.073513 2.525193 2.4099272c.0011228.0186222.0011228.0361489.0011228.0547711z" fill="#666"/><g fill="#808080" transform="translate(7.2982 13.4737)"><path d="m4.74385965 3.13007513s-1.07789474.23834592-2.17150877.23834592c-1.09361404 0-2.26357895-.23834592-2.26357895-.23834592-.17066667 0-.30877193-.13839441-.30877193-.3086415v-.01098369c0-.17024709.13810526-.30864149.30877193-.30864149l.44350877.08347599c1.14189474.21418182 2.31410526.21857529 3.45824562.01318042l.53333333-.09555805c.17066667 0 .30877193.13839441.30877193.3086415v.01098369c0 .17024709-.13810526.30864149-.30877193.30864149z"/><path d="m4.74385965 1.92186997s-1.07789474.23834593-2.17150877.23834593c-1.09361404 0-2.26357895-.23834593-2.26357895-.23834593-.17066667 0-.30877193-.13839441-.30877193-.3086415v-.01098368c0-.17024709.13810526-.3086415.30877193-.3086415l.44350877.08347599c1.14189474.21418183 2.31410526.2185753 3.45824562.01318042l.53333333-.09555804c.17066667 0 .30877193.13839441.30877193.3086415v.01098368c0 .17024709-.13810526.3086415-.30877193.3086415z"/><path d="m4.74385965.62826668s-1.07789474.23834593-2.17150877.23834593c-1.09361404 0-2.26357895-.23834593-2.26357895-.23834593-.17066667 0-.30877193-.13839441-.30877193-.3086415v-.01098368c0-.17024709.13810526-.3086415.30877193-.3086415l.44350877.08347599c1.14189474.21418183 2.31410526.2185753 3.45824562.01318042l.53333333-.09555804c.17066667 0 .30877193.13839441.30877193.3086415v.01098368c0 .17024709-.13810526.3086415-.30877193.3086415z"/></g></g><g><path d="m19.0877193 2.52631579c0 1.39512961-4.2729701 2.52631579-9.54385965 2.52631579-5.27088951 0-9.54385965-1.13118618-9.54385965-2.52631579 0-.01413983 0-.02710134.00223248-.04124116.08260183-1.37627652 4.32320099-2.48507463 9.54162717-2.48507463 5.21842615 0 9.45902535 1.10879811 9.54162715 2.48507463.0022325.01413982.0022325.02710133.0022325.04124116z" fill="url(#b)"/><path d="m19.0877193 2.52631579c0 1.39512961-4.2729701 2.52631579-9.54385965 2.52631579-5.27088951 0-9.54385965-1.13118618-9.54385965-2.52631579 0-.01413983 0-.02710134.00223248-.04124116.08260183-1.37627652 4.32320099-2.48507463 9.54162717-2.48507463 5.21842615 0 9.45902535 1.10879811 9.54162715 2.48507463.0022325.01413982.0022325.02710133.0022325.04124116z" fill="#666"/><path d="m19.0877193 29.530667h-.0022325c.0022325.0135989.0022325.0260646.0022325.0396635 0 1.1207757-2.9803632 2.0636325-7.0323176 2.3446764-.8003448.0555288-1.6419904.0849931-2.51154205.0849931-.86955166 0-1.71119729-.0294643-2.51154201-.0849931-4.05195445-.2810439-7.03231764-1.2239007-7.03231764-2.3446764 0-.0135989 0-.0260646.00223248-.0396635h-.00223248v-27.28505296c0 1.3417578 4.27297014 2.42966954 9.54385965 2.42966954 5.27088955 0 9.54385965-1.08791174 9.54385965-2.42966954z" fill="url(#c)"/><path d="m12.3508772 25.4822422v6.4356012c-.8050526.0536756-1.6516491.0821566-2.5263158.0821566-.87466666 0-1.72126315-.028481-2.52631579-.0821566v-6.4356012c0-.0186222 0-.0361489.00112281-.0547711.02919298-1.3364142 1.14863158-2.4099272 2.52519298-2.4099272s2.496 1.073513 2.525193 2.4099272c.0011228.0186222.0011228.0361489.0011228.0547711z" fill="#666"/><g fill="#808080" transform="translate(7.2982 13.4737)"><path d="m4.74385965 3.13007513s-1.07789474.23834592-2.17150877.23834592c-1.09361404 0-2.26357895-.23834592-2.26357895-.23834592-.17066667 0-.30877193-.13839441-.30877193-.3086415v-.01098369c0-.17024709.13810526-.30864149.30877193-.30864149l.44350877.08347599c1.14189474.21418182 2.31410526.21857529 3.45824562.01318042l.53333333-.09555805c.17066667 0 .30877193.13839441.30877193.3086415v.01098369c0 .17024709-.13810526.30864149-.30877193.30864149z"/><path d="m4.74385965 1.92186997s-1.07789474.23834593-2.17150877.23834593c-1.09361404 0-2.26357895-.23834593-2.26357895-.23834593-.17066667 0-.30877193-.13839441-.30877193-.3086415v-.01098368c0-.17024709.13810526-.3086415.30877193-.3086415l.44350877.08347599c1.14189474.21418183 2.31410526.2185753 3.45824562.01318042l.53333333-.09555804c.17066667 0 .30877193.13839441.30877193.3086415v.01098368c0 .17024709-.13810526.3086415-.30877193.3086415z"/><path d="m4.74385965.62826668s-1.07789474.23834593-2.17150877.23834593c-1.09361404 0-2.26357895-.23834593-2.26357895-.23834593-.17066667 0-.30877193-.13839441-.30877193-.3086415v-.01098368c0-.17024709.13810526-.3086415.30877193-.3086415l.44350877.08347599c1.14189474.21418183 2.31410526.2185753 3.45824562.01318042l.53333333-.09555804c.17066667 0 .30877193.13839441.30877193.3086415v.01098368c0 .17024709-.13810526.3086415-.30877193.3086415z"/></g></g><g transform="translate(29.9977)"><path d="m19.0877193 2.52631579c0 1.39512961-4.2729701 2.52631579-9.54385965 2.52631579-5.27088951 0-9.54385965-1.13118618-9.54385965-2.52631579 0-.01413983 0-.02710134.00223248-.04124116.08260183-1.37627652 4.32320099-2.48507463 9.54162717-2.48507463 5.21842615 0 9.45902535 1.10879811 9.54162715 2.48507463.0022325.01413982.0022325.02710133.0022325.04124116z" fill="url(#b)"/><path d="m19.0877193 2.52631579c0 1.39512961-4.2729701 2.52631579-9.54385965 2.52631579-5.27088951 0-9.54385965-1.13118618-9.54385965-2.52631579 0-.01413983 0-.02710134.00223248-.04124116.08260183-1.37627652 4.32320099-2.48507463 9.54162717-2.48507463 5.21842615 0 9.45902535 1.10879811 9.54162715 2.48507463.0022325.01413982.0022325.02710133.0022325.04124116z" fill="#666"/><path d="m19.0877193 29.530667h-.0022325c.0022325.0135989.0022325.0260646.0022325.0396635 0 1.1207757-2.9803632 2.0636325-7.0323176 2.3446764-.8003448.0555288-1.6419904.0849931-2.51154205.0849931-.86955166 0-1.71119729-.0294643-2.51154201-.0849931-4.05195445-.2810439-7.03231764-1.2239007-7.03231764-2.3446764 0-.0135989 0-.0260646.00223248-.0396635h-.00223248v-27.28505296c0 1.3417578 4.27297014 2.42966954 9.54385965 2.42966954 5.27088955 0 9.54385965-1.08791174 9.54385965-2.42966954z" fill="url(#c)"/><path d="m12.3508772 25.4822422v6.4356012c-.8050526.0536756-1.6516491.0821566-2.5263158.0821566-.87466666 0-1.72126315-.028481-2.52631579-.0821566v-6.4356012c0-.0186222 0-.0361489.00112281-.0547711.02919298-1.3364142 1.14863158-2.4099272 2.52519298-2.4099272s2.496 1.073513 2.525193 2.4099272c.0011228.0186222.0011228.0361489.0011228.0547711z" fill="#666"/><g fill="#808080" transform="translate(7.2982 13.4737)"><path d="m4.74385965 3.13007513s-1.07789474.23834592-2.17150877.23834592c-1.09361404 0-2.26357895-.23834592-2.26357895-.23834592-.17066667 0-.30877193-.13839441-.30877193-.3086415v-.01098369c0-.17024709.13810526-.30864149.30877193-.30864149l.44350877.08347599c1.14189474.21418182 2.31410526.21857529 3.45824562.01318042l.53333333-.09555805c.17066667 0 .30877193.13839441.30877193.3086415v.01098369c0 .17024709-.13810526.30864149-.30877193.30864149z"/><path d="m4.74385965 1.92186997s-1.07789474.23834593-2.17150877.23834593c-1.09361404 0-2.26357895-.23834593-2.26357895-.23834593-.17066667 0-.30877193-.13839441-.30877193-.3086415v-.01098368c0-.17024709.13810526-.3086415.30877193-.3086415l.44350877.08347599c1.14189474.21418183 2.31410526.2185753 3.45824562.01318042l.53333333-.09555804c.17066667 0 .30877193.13839441.30877193.3086415v.01098368c0 .17024709-.13810526.3086415-.30877193.3086415z"/><path d="m4.74385965.62826668s-1.07789474.23834593-2.17150877.23834593c-1.09361404 0-2.26357895-.23834593-2.26357895-.23834593-.17066667 0-.30877193-.13839441-.30877193-.3086415v-.01098368c0-.17024709.13810526-.3086415.30877193-.3086415l.44350877.08347599c1.14189474.21418183 2.31410526.2185753 3.45824562.01318042l.53333333-.09555804c.17066667 0 .30877193.13839441.30877193.3086415v.01098368c0 .17024709-.13810526.3086415-.30877193.3086415z"/></g></g></g></svg>