<svg height="38" viewBox="0 0 101 38" width="101" xmlns="http://www.w3.org/2000/svg" xmlns:xlink="http://www.w3.org/1999/xlink"><linearGradient id="a" x1="50%" x2="50%" y1="100%" y2="0%"><stop offset=".35" stop-color="#e6e6e6"/><stop offset=".68" stop-color="#e4e4e4"/><stop offset=".8" stop-color="#ddd"/><stop offset=".89" stop-color="#d1d1d1"/><stop offset=".96" stop-color="#c0c0c0"/><stop offset="1" stop-color="#b3b3b3"/></linearGradient><linearGradient id="b" x1="53.096341%" x2="46.903659%" y1="46.840182%" y2="53.159818%"><stop offset="0" stop-color="#999"/><stop offset="1" stop-color="#e6e6e6"/></linearGradient><g fill="none" fill-rule="nonzero"><g transform="translate(60)"><path d="m0 7.48484848h30.5151515v30.51515152h-30.5151515z" fill="url(#a)"/><path d="m30.3890526 7.48484848-30.3890526-.00911452 10.4897353-7.47573396 30.3890526.00911453z" fill="url(#b)"/><path d="m30.5151515 38h10.3636364v-38l-10.3453325 7.60370822z" fill="#666"/><path d="m19 28.6474627v9.3525373h-8.0606061v-9.3525373c0-.0245771 0-.0491542.0017913-.0737314.0465724-1.7960199 1.8324444-3.240398 4.0285118-3.240398 2.1960673 0 3.9819394 1.4424876 4.0285118 3.240398.0017912.0245772.0017912.0491543.0017912.0737314z" fill="#666"/><g fill="#ccc" transform="translate(34.5455 14.9697)"><path d="m.48358078 11.9806473 1.39145274-1.0241259c.23345279-.1712951.42429118-.4847287.42429118-.6997587v-1.27742409c0-.21503001-.18713279-.24965348-.42058558-.0765361l-1.39145274 1.02412599c-.23345279.1712951-.42429118.4847287-.42429118.6997587v1.277424c0 .2150301.18713279.2496535.42058558.0765361z"/><path d="m.48728638 9.01396209 1.39145274-1.02412599c.23345279-.1712951.42429118-.48472867.42429118-.69975869v-1.27742405c0-.21503002-.18713279-.24965349-.42058558-.07653611l-1.39145274 1.02412599c-.23345279.1712951-.42429118.48472868-.42429118.69975869v1.27742406c0 .21503001.18713279.24965348.42058558.0765361z"/><path d="m.42058558 6.15479184 1.39145274-1.02412599c.23345279-.1712951.42429119-.48472867.42429119-.69975869v-1.27742405c0-.21503002-.1871328-.24965349-.42058559-.07653611l-1.39145274 1.02412599c-.23345279.1712951-.42429118.48472867-.42429118.69975869v1.27742405c0 .21503002.18713279.24965349.42058558.07653611z"/><path d="m.42429118 3.18810658 1.39145274-1.02412599c.23345279-.17129509.42429119-.48472867.42429119-.69975868v-1.27742406c0-.21503001-.1871328-.24965349-.42058559-.07653611l-1.39145274 1.02412599c-.23345279.1712951-.42429118.48472868-.42429118.69975869v1.27742406c0 .21503001.18713279.24965349.42058558.0765361z"/></g><rect fill="#808080" height="2.30303" rx="1.151515" width="13.242424" x="8.636364" y="17.272727"/></g><g><path d="m0 7.48484848h30.5151515v30.51515152h-30.5151515z" fill="url(#a)"/><path d="m30.3890526 7.48484848-30.3890526-.00911452 10.4897353-7.47573396 30.3890526.00911453z" fill="url(#b)"/><path d="m30.5151515 38h10.3636364v-38l-10.3453325 7.60370822z" fill="#666"/><path d="m19 28.6474627v9.3525373h-8.0606061v-9.3525373c0-.0245771 0-.0491542.0017913-.0737314.0465724-1.7960199 1.8324444-3.240398 4.0285118-3.240398 2.1960673 0 3.9819394 1.4424876 4.0285118 3.240398.0017912.0245772.0017912.0491543.0017912.0737314z" fill="#666"/><g fill="#ccc" transform="translate(34.5455 14.9697)"><path d="m.48358078 11.9806473 1.39145274-1.0241259c.23345279-.1712951.42429118-.4847287.42429118-.6997587v-1.27742409c0-.21503001-.18713279-.24965348-.42058558-.0765361l-1.39145274 1.02412599c-.23345279.1712951-.42429118.4847287-.42429118.6997587v1.277424c0 .2150301.18713279.2496535.42058558.0765361z"/><path d="m.48728638 9.01396209 1.39145274-1.02412599c.23345279-.1712951.42429118-.48472867.42429118-.69975869v-1.27742405c0-.21503002-.18713279-.24965349-.42058558-.07653611l-1.39145274 1.02412599c-.23345279.1712951-.42429118.48472868-.42429118.69975869v1.27742406c0 .21503001.18713279.24965348.42058558.0765361z"/><path d="m.42058558 6.15479184 1.39145274-1.02412599c.23345279-.1712951.42429119-.48472867.42429119-.69975869v-1.27742405c0-.21503002-.1871328-.24965349-.42058559-.07653611l-1.39145274 1.02412599c-.23345279.1712951-.42429118.48472867-.42429118.69975869v1.27742405c0 .21503002.18713279.24965349.42058558.07653611z"/><path d="m.42429118 3.18810658 1.39145274-1.02412599c.23345279-.17129509.42429119-.48472867.42429119-.69975868v-1.27742406c0-.21503001-.1871328-.24965349-.42058559-.07653611l-1.39145274 1.02412599c-.23345279.1712951-.42429118.48472868-.42429118.69975869v1.27742406c0 .21503001.18713279.24965349.42058558.0765361z"/></g><rect fill="#808080" height="2.30303" rx="1.151515" width="13.242424" x="8.636364" y="17.272727"/></g></g></svg>