<svg height="53" viewBox="0 0 71 53" width="71" xmlns="http://www.w3.org/2000/svg" xmlns:xlink="http://www.w3.org/1999/xlink"><linearGradient id="a" x1="50%" x2="50%" y1="100%" y2="0%"><stop offset=".35" stop-color="#e6e6e6"/><stop offset=".63" stop-color="#e4e4e4"/><stop offset=".73" stop-color="#ddd"/><stop offset=".8" stop-color="#d1d1d1"/><stop offset=".86" stop-color="#c0c0c0"/><stop offset=".91" stop-color="#aaa"/><stop offset=".95" stop-color="#8f8f8f"/><stop offset=".99" stop-color="#6f6f6f"/><stop offset="1" stop-color="#666"/></linearGradient><mask id="b" fill="#fff"><path d="m27.3875226 13.8471179v39.0834498h-27.3875226v-39.0834498c0-.1041485 0-.2013537.00694116-.3078166.15733307-7.49174671 6.19846017-13.51152837 13.63938884-13.5393013h.0485881c7.4617522 0 13.5283302 6.03135371 13.6856633 13.5393013.0069412.1064629.0069412.2036681.0069412.3078166z" fill="#fff" fill-rule="evenodd"/></mask><g fill="none" fill-rule="nonzero" transform="translate(.2778)"><path d="m71.02 13.9250819v39.0749181h-40.8968376v-.0115695h-28.0031624v-.0694172h20.5210495v-39.0749181c0-.1041258 0-.2013098-.009223-.3077494.009223-6.36323949-5.5245432-13.5363458-13.82519241-13.5363458h41.73381971v.08098668h.0299746c11.1413158 0 20.2028579 6.03003711 20.4403487 13.53634582.0092229.1064396.0092229.2036236.0092229.3077494z" fill="url(#a)"/><g fill="#666"><g mask="url(#b)"><g transform="translate(-2.4572 -11.6901)"><path d="m.28690148 83.7099127.23831332.851703 30.3120667-19.2188646-.2406271-.8517031z"/><path d="m.27996031 82.0574236.23831333.851703 30.31206666-19.2188646-.240627-.851703z"/><path d="m.27070543 80.4026201.24062704.851703 30.30975293-19.2165502-.2383133-.8540174z"/><path d="m.26376426 78.750131.24062705.8517031 30.30975299-19.2188647-.2383134-.851703z"/><path d="m.2568231 77.0953275.24062704.8540175 30.30975296-19.2188647-.2406271-.8540174z"/><path d="m.24988193 75.4428384.24062705.8517031 30.30975292-19.2188646-.240627-.8517031z"/><path d="m.24294077 73.7880349.23831332.8540175 30.31206671-19.2188646-.2406271-.8540175z"/><path d="m.2359996 72.1355459.23831333.851703 30.31206667-19.2188646-.240627-.8517031z"/><path d="m.22674472 70.4807424.24062704.8540174 30.30975294-19.2188646-.2383133-.8540175z"/><path d="m.21980355 68.8282533.24062705.851703 30.3097529-19.2188646-.2383133-.8517031z"/><path d="m.21286239 67.1734498.24062704.8540174 30.30975297-19.2188646-.2406271-.8540174z"/><path d="m.20592122 65.5209607.24062705.8517031 30.30975293-19.2188647-.240627-.851703z"/><path d="m.19898006 63.8661572.23831332.8540175 30.31206672-19.2188647-.2406271-.8540174z"/><path d="m.19203889 62.2136681.23831333.8517031 30.31206668-19.2188646-.2406271-.8517031z"/><path d="m.18278401 60.5588646.24062704.8540175 30.30975295-19.2188646-.2383133-.8540175z"/><path d="m.17584284 58.9063755.24062705.8517031 30.30975291-19.2188646-.2383133-.8517031z"/><path d="m.16890168 57.2515721.24062704.8540174 30.30975298-19.2188646-.2406271-.8540175z"/><path d="m.16196051 55.599083.24062705.851703 30.30975294-19.2188646-.240627-.8517031z"/><path d="m.15501935 53.9442795.23831332.8540174 30.31206663-19.2188646-.240627-.8540175z"/><path d="m.14807818 52.2917904.23831333.851703 30.30975299-19.2188646-.2383134-.851703z"/><path d="m.1388233 50.6369869.24062704.8540175 30.30975296-19.2188647-.2383133-.851703z"/><path d="m.13188213 48.9844978.24062705.8517031 30.30975292-19.2188647-.2383133-.851703z"/><path d="m.12494097 47.3320087.24062704.8517031 30.30975299-19.2188646-.2406271-.8517031z"/><path d="m.1179998 45.6772052.24062705.8517031 30.30975295-19.2188646-.240627-.8517031z"/><path d="m.11105864 44.0247162.23831332.851703 30.31206664-19.2188646-.240627-.8517031z"/><path d="m.10411747 42.3699127.23831333.851703 30.3097529-19.2188646-.2383133-.8517031z"/><path d="m.09486259 40.7174236.24062704.851703 30.30975297-19.2188646-.2383133-.851703z"/><path d="m.08792142 39.0626201.24062705.851703 30.30975293-19.2188646-.2383133-.851703z"/><path d="m.08098026 37.410131.24062704.8517031 30.309753-19.2188647-.2406271-.851703z"/><path d="m.07403909 35.7553275.24062705.8517031 30.30975296-19.2165503-.2406271-.8540174z"/><path d="m.06709793 34.1028384.23831332.8517031 30.31206665-19.2188646-.240627-.8517031z"/><path d="m.06015676 32.4480349.23831333.8540175 30.30975291-19.2188646-.2383133-.8540175z"/><path d="m.05090188 30.7955459.24062704.851703 30.30975298-19.2188646-.2383134-.8517031z"/><path d="m.04396071 29.1407424.24062705.8540174 30.30975294-19.2188646-.240627-.85401747z"/><path d="m.03701955 27.4882533.24062704.851703 30.30975291-19.2188646-.240627-.85170305z"/><path d="m.03007838 25.8334498.23831333.8540174 30.31206669-19.21886458-.2406271-.85401747z"/><path d="m.02313722 24.1809607.23831332.8517031 30.31206666-19.21886467-.240627-.85170306z"/><path d="m.01619605 22.5261572.23831333.8540175 30.30975292-19.21886466-.2383133-.85401746z"/><path d="m.00694116 20.8736681.24062705.8517031 30.30975299-19.21886465-.2383134-.85170306z"/><path d="m0 19.2188646.24062705.8540175 30.30975295-19.21886463-.240627-.85401747z"/></g></g><rect height="4.165939" rx="2.082349" width="4.164699" x="32.940454" y="24.30131"/><rect height="4.165939" rx="2.082349" width="4.164699" x="38.956131" y="24.30131"/><rect height="4.165939" rx="2.082349" width="4.164699" x="32.940454" y="18.283843"/><rect height="4.165939" rx="2.082349" width="4.164699" x="38.956131" y="18.283843"/><rect height="4.165939" rx="2.082349" width="4.164699" x="46.36004" y="24.30131"/><rect height="4.165939" rx="2.082349" width="4.164699" x="52.375716" y="24.30131"/><rect height="4.165939" rx="2.082349" width="4.164699" x="46.36004" y="18.283843"/><rect height="4.165939" rx="2.082349" width="4.164699" x="52.375716" y="18.283843"/><rect height="4.165939" rx="2.082349" width="4.164699" x="59.779625" y="24.30131"/><rect height="4.165939" rx="2.082349" width="4.164699" x="65.795301" y="24.30131"/><rect height="4.165939" rx="2.082349" width="4.164699" x="59.779625" y="18.283843"/><rect height="4.165939" rx="2.082349" width="4.164699" x="65.795301" y="18.283843"/><path d="m40.1060502 39.1135371h5.5668142c1.0180375 0 1.8440361.8262446 1.8440361 1.8445852v12.0418777h-9.2548864v-12.0418777c0-1.0183406.8259986-1.8445852 1.8440361-1.8445852z"/><path d="m58.1530787 39.1135371h5.5668141c1.0180376 0 1.8440362.8262446 1.8440362 1.8445852v12.0418777h-9.2548864v-12.0418777c0-1.0183406.8259986-1.8445852 1.8440361-1.8445852z"/></g></g></svg>