<svg height="46" viewBox="0 0 81 46" width="81" xmlns="http://www.w3.org/2000/svg" xmlns:xlink="http://www.w3.org/1999/xlink"><linearGradient id="a" x1="50%" x2="50%" y1="100%" y2="0%"><stop offset="0" stop-color="#333"/><stop offset=".38" stop-color="#5a5a5a"/><stop offset="1" stop-color="#999"/></linearGradient><linearGradient id="b" x1="50%" x2="50%" y1="100%" y2="0%"><stop offset=".35" stop-color="#e6e6e6"/><stop offset=".68" stop-color="#e4e4e4"/><stop offset=".8" stop-color="#ddd"/><stop offset=".89" stop-color="#d1d1d1"/><stop offset=".96" stop-color="#c0c0c0"/><stop offset="1" stop-color="#b3b3b3"/></linearGradient><g fill="none"><path d="m25.6538462 13.4600565v32.5399435h-25.6538462v-32.590363h.09955224l12.70439726-13.409637 12.7063117 13.409637.0478616.0504195z" fill="url(#a)"/><path d="m25.6538462 13.2692308h55.7307692v32.7307692h-55.7307692z" fill="url(#b)"/><path d="m81.3846154 13.2692308-55.9768855-.0057327h-.0970136l-.0485069-.0496832-12.877594-13.2138149 56.1709128.00764357z" fill="#ccc"/><g fill="#666" transform="translate(49.5385 33.6154)"><path d="m.9635379.04818916h.00192707c-.00192707.03276864-.00192707.0636097-.00192707.09637833z"/><path d="m9.63537898.04818916v.09637833c0-.03276863 0-.06360969-.00192708-.09637833z"/><path d="m8.67184108 4.48159234v7.90302306h-8.67184108v-7.90302306c0-.03276863 0-.0636097.00192708-.09637833.05010397-2.35163125 1.97139853-4.24064652 4.33399346-4.24064652s4.28388949 1.88901527 4.33399347 4.24064652c.00192707.03276863.00192707.0636097.00192707.09637833z"/></g><g fill="#808080"><rect height="4.849456" rx="1.698457" width="3.396914" x="30.9615" y="18.5769"/><rect height="4.841697" rx="1.695532" width="3.391064" x="39.311434" y="18.586599"/><rect height="4.831998" rx="1.692607" width="3.385214" x="47.659418" y="18.598238"/><rect height="4.824239" rx="1.689682" width="3.379364" x="56.009353" y="18.607937"/><rect height="4.81648" rx="1.687732" width="3.375464" x="64.359287" y="18.617635"/><rect height="4.808721" rx="1.684807" width="3.369614" x="72.707271" y="18.629274"/><rect height="4.849456" rx="1.698457" width="3.396914" x="30.9615" y="27.686118"/><rect height="4.841697" rx="1.695532" width="3.391064" x="39.311434" y="27.695817"/><rect height="4.831998" rx="1.692607" width="3.385214" x="47.659418" y="27.705516"/><rect height="4.824239" rx="1.689682" width="3.379364" x="56.009353" y="27.715215"/><rect height="4.81648" rx="1.687732" width="3.375464" x="64.359287" y="27.726854"/><rect height="4.808721" rx="1.684807" width="3.369614" x="72.707271" y="27.736553"/><rect height="4.808721" rx="1.684807" width="3.369614" x="72.707271" y="36.768179"/><rect height="4.849456" rx="1.698457" width="3.396914" x="30.9615" y="36.717745"/><rect height="4.808721" rx="1.684807" width="3.369614" x="63.241932" y="36.742962"/><rect height="4.808721" rx="1.684807" width="3.369614" x="40.036837" y="36.742962"/></g></g></svg>