<svg height="140" viewBox="0 0 544 140" width="544" xmlns="http://www.w3.org/2000/svg"><g fill="#fff" fill-rule="nonzero"><path d="m184.502463 117.740001 8.702948-9.850438c1.100395 2.706004 2.872101 4.830667 5.308197 6.38091 2.436095 1.550242 5.169782 2.325364 8.207981 2.325364 3.667985 0 6.57469-.865091 8.713194-2.602193 2.138505-1.737103 3.204297-4.069387 3.204297-7.010696 0-3.467284-3.557254-6.927647-10.66484-10.3603273-2.304601-1.1003955-4.124752-2.0000899-5.460453-2.7060039-6.408592-3.3357901-10.844778-6.6023729-13.315477-9.7859069-2.470699-3.1835341-3.702588-6.9830128-3.702588-11.3915154 0-6.041794 2.394571-11.0039547 7.183713-14.8934028 4.789143-3.8894482 11.003955-5.8341722 18.651358-5.8341722 4.436185 0 8.270268.7751213 11.488405 2.325364 3.218138 1.5502426 6.062556 3.9794175 8.533256 7.2875247l-9.259932 8.8585296c-1.100396-2.1385045-2.560669-3.7302715-4.38082-4.7822219s-4.014021-1.5779255-6.58161-1.5779255c-3.107406 0-5.605789.7751213-7.508988 2.325364-1.9032 1.5502426-2.85134 3.564174-2.85134 6.0348732 0 3.868686 3.771796 7.4120978 11.315388 10.6163941 1.501797.6367068 2.650638 1.1349991 3.453442 1.5017976 6.207892 2.8374977 10.803254 6.041794 13.793008 9.6128887 2.989753 3.5710947 4.477709 7.640482 4.477709 12.215082 0 6.879202-2.346126 12.360417-7.031457 16.443645-4.692253 4.090149-10.990114 6.131764-18.900504 6.131764-5.605788 0-10.415693-.968902-14.415872-2.906705-4.007101-1.937804-6.989934-4.719936-8.962341-8.360238-.0005.001-.000095.002215.000905.002715.00082.00041.001813.000217.002421-.00047z"/><path d="m391.503285 127.066895v-73.2974111h15.668525v73.2974111z"/><path d="m309.436546 53.7694839v45.6075859c0 9.9450832-2.622955 17.3710232-7.861945 22.2778172-5.23899 4.906795-13.135538 7.356732-23.682725 7.356732s-18.692882-2.449937-23.931872-7.356732c-5.238989-4.906794-7.861945-12.332734-7.861945-22.2778172v-45.6075859h15.571635v43.1576488c0 6.0417943 1.3357 10.5887113 4.0071 13.6407513s6.657739 4.581521 11.965936 4.581521 9.377584-1.536401 12.118191-4.609204c2.733687-3.072802 4.103991-7.612799 4.103991-13.6199891v-43.1576487h15.571634z"/><path d="m378.993083 127h-18.067868l-19.264552-34.104806v34.104806h-15.660663v-73h22.41882c8.909423 0 15.577656 1.7231612 20.018533 5.1625909 4.43396 3.4394297 6.654399 8.6158059 6.654399 15.5291285 0 5.0178453-1.514879 9.3050703-4.551554 12.8685676-3.036674 3.5566047-6.958757 5.6312908-11.759331 6.2309508l20.219133 33.2087622zm-35.993083-43.0068223h2.225645c5.996149 0 9.963034-.6822262 11.887563-2.0466786 1.924528-1.3644524 2.886792-3.7454219 2.886792-7.1292639s-1.03427-6.0786356-3.102811-7.572711-5.956873-2.2445242-11.671544-2.2445242h-2.225645v19z"/><path d="m155.885836 127.066895v-73.2974111h15.668524v73.2974111z"/><path d="m424 125.986217v-72.986217h20.258099c7.988121 0 14.284558.5513075 18.889309 1.6470311 4.604752 1.0957235 8.647948 2.9219295 12.136609 5.4855093 4.49946 3.2871707 7.910907 7.4357594 10.234342 12.4388747 2.316414 5.0031153 3.481641 10.6953648 3.481641 17.0767488 0 6.3813839-1.186285 12.2252431-3.551836 17.2283581-2.37257 5.003115-5.840173 9.13103-10.409827 12.390636-3.383369 2.391296-7.152808 4.114132-11.301296 5.161616s-10.213283 1.571226-18.208423 1.571226h-21.528618zm17-13.986217h8.36276c7.877866 0 13.623527-1.878052 17.23034-5.634157 3.606814-3.756105 5.4069-9.7102266 5.4069-17.8623651s-1.800086-14.0645257-5.4069-17.8414977c-3.606813-3.7769721-9.345832-5.6619802-17.23034-5.6619802h-8.36276z"/><path d="m501.264681 127.583674v-73.2974116h43.157649v13.2185871h-27.489125v15.066421h27.489125v13.3154773h-27.489125v18.3745282h27.489125v13.315477h-43.157649z"/><path d="m103.308581 4.82007777-12.2603146-4.64979928c-1.3510336-.51242686-2.8662115.17080895-3.377584 1.52462806l-17.7402076 46.97246215h-64.43925244c-1.9318518 0-3.49122236 1.5689119-3.49122236 3.4984204v46.0741336c0 1.9358353 1.56568381 3.4984203 3.49122236 3.4984203h44.39471174l-7.3296729 19.402632h-37.06503884c-1.9318518 0-3.49122236 1.568912-3.49122236 3.49842v10.862185c0 1.935834 1.56568381 3.49842 3.49122236 3.49842h93.56854714c1.9318515 0 3.4912225-1.568912 3.4912225-3.49842v-48.1238415c0-1.9358348-1.565684-3.4984204-3.4912225-3.4984204h-22.8160536l7.329673-19.4026318h15.4926938c1.9318513 0 3.4912223-1.5689119 3.4912223-3.4984204v-8.8124768c0-1.9358348-1.565684-3.4984204-3.4912223-3.4984204h-9.5203677l15.284357-40.46906941c.511372-1.35381911-.170458-2.87212092-1.521491-3.38454778zm-22.7707324 97.18611723c1.9157655 0 3.4621514 1.536355 3.4621514 3.425823v12.142159c0 1.895663-1.5526466 3.425823-3.4621514 3.425823h-18.5378486l7.2686397-19h11.2754696zm-23.9018653-19.01239h-33.1253788c-1.9425768 0-3.5106045-1.5363547-3.5106045-3.4258233v-12.1421584c0-1.8956635 1.574376-3.4258233 3.5106045-3.4258233h40.4893955l-7.370365 19z"/></g></svg>